<svg width="9" height="9" fill="none" xmlns="http://www.w3.org/2000/svg"><path d="M7.29 0H1.21C.523 0 0 .523 0 1.21v6.08C0 7.978.523 8.5 1.21 8.5h6.08c.687 0 1.21-.523 1.21-1.21V1.21C8.5.523 7.977 0 7.29 0zM4.25 6.8c1.406 0 2.55-1.11 2.55-2.452 0-.229-.033-.49-.098-.686h.72v3.465a.328.328 0 01-.328.327H1.406a.328.328 0 01-.327-.327V3.629h.752a2.489 2.489 0 00-.098.687C1.7 5.689 2.844 6.8 4.25 6.8zm0-.98c-.915 0-1.635-.72-1.635-1.603 0-.882.72-1.601 1.635-1.601s1.635.719 1.635 1.601c0 .916-.72 1.602-1.635 1.602zm3.138-3.5c0 .196-.163.36-.36.36h-.915a.363.363 0 01-.36-.36v-.88c0-.197.164-.36.36-.36h.916c.196 0 .36.163.36.36v.882z" fill="#2B7AF1"/></svg>