<svg width="11" height="7" fill="none" xmlns="http://www.w3.org/2000/svg"><path d="M10.903 5.558c0-.042-.041-.042-.041-.084-.166-.332-.54-.747-1.038-1.203-.25-.208-.374-.374-.457-.457-.124-.166-.124-.29-.083-.457.042-.124.208-.332.498-.705.166-.208.25-.332.374-.457.623-.83.913-1.37.83-1.619l-.041-.041c-.042-.042-.083-.083-.166-.083-.083-.042-.208-.042-.332 0H8.579l-.042.041c-.041.042-.041.042-.041.083-.166.457-.374.83-.582 1.245a7.08 7.08 0 01-.373.582c-.125.166-.208.29-.29.373-.084.083-.167.125-.208.208-.042.041-.125.083-.125.041-.041 0-.083 0-.083-.041l-.124-.125c-.042-.041-.042-.124-.083-.207V.576c0-.041-.042-.124-.042-.166L6.462.286C6.42.244 6.337.244 6.295.203A3.723 3.723 0 005.548.12c-.664 0-1.12.041-1.287.124-.083.042-.166.083-.207.166-.083.083-.083.125-.042.125.208.041.374.124.457.249l.041.083c.042.041.042.124.083.249.042.124.042.249.042.415v.664c0 .208-.042.332-.042.457 0 .124-.041.207-.083.249-.041.083-.041.124-.083.124 0 0 0 .042-.041.042-.042 0-.083.041-.166.041a.315.315 0 01-.166-.083.5.5 0 01-.208-.207 1.449 1.449 0 01-.249-.374c-.083-.166-.207-.332-.29-.581l-.083-.166a5.876 5.876 0 01-.208-.457c-.083-.207-.166-.373-.249-.58a.573.573 0 00-.125-.167h-.041S2.559.452 2.518.452c-.042 0-.083-.042-.125-.042H.9C.734.41.65.452.61.493L.566.535v.083c0 .041 0 .083.041.166.208.498.457.996.706 1.494.25.457.498.872.664 1.162.208.291.374.582.581.83.208.25.333.416.374.499l.166.166.125.124c.083.083.207.208.373.332.166.125.374.25.581.374.208.125.457.208.706.29.29.084.54.125.789.084h.622a.377.377 0 00.291-.125l.042-.041c0-.042.041-.042.041-.083v-.166c0-.166 0-.291.042-.416.041-.124.041-.207.083-.29a.573.573 0 01.124-.166L7 4.769h.042c.083-.042.207 0 .29.083.125.083.25.207.332.332.083.124.208.249.374.415.166.166.29.29.374.332l.124.083c.083.042.166.083.29.125a.823.823 0 00.291.041l1.412-.041a.782.782 0 00.332-.083c.083-.042.124-.083.124-.166v-.166c-.083-.083-.083-.125-.083-.167z" fill="#2B7AF1"/></svg>