<svg width="80" height="80" fill="none" xmlns="http://www.w3.org/2000/svg"><g clip-path="url(#clip0)"><path d="M71.094 0h-47.5a4.693 4.693 0 00-4.688 4.688v5.447a1.55 1.55 0 00-.48.323l-13.75 13.75a1.56 1.56 0 00-.454 1.104H4.22v50A4.693 4.693 0 008.906 80h47.5a4.693 4.693 0 004.688-4.687V70h10a4.693 4.693 0 004.687-4.687V4.687A4.693 4.693 0 0071.094 0zM47.286 10h-3.61a4.692 4.692 0 00-4.145-2.5 4.693 4.693 0 00-4.687 4.688v9.211a1.563 1.563 0 003.125 0v-9.212a1.563 1.563 0 013.125.001v10.461a4.693 4.693 0 01-4.688 4.688 4.693 4.693 0 01-4.687-4.688V10.937c0-4.307 3.504-7.812 7.812-7.812 3.99 0 7.29 3.008 7.755 6.875zM23.593 3.125h8.293A10.907 10.907 0 0028.637 10H22.03V4.687c0-.861.701-1.562 1.563-1.562zm-5.625 12.21v5.68a2.738 2.738 0 01-2.735 2.735h-5.68l8.415-8.415zm54.687 49.977c0 .862-.7 1.563-1.562 1.563h-10V36.589a1.563 1.563 0 00-3.125 0v38.724c0 .861-.701 1.562-1.563 1.562h-47.5c-.861 0-1.562-.7-1.562-1.563V26.876h7.89a5.866 5.866 0 005.86-5.86v-7.89h7.5v9.524c0 4.308 3.504 7.813 7.812 7.813s7.813-3.505 7.813-7.813v-9.524h12.187c.862 0 1.563.7 1.563 1.563v9.4a1.563 1.563 0 003.125 0v-9.4A4.693 4.693 0 0056.406 10h-5.98a10.908 10.908 0 00-3.25-6.875h23.918c.861 0 1.562.7 1.562 1.563v60.624z" fill="#2B7AF1"/><path d="M16.572 53.047H48.74a1.563 1.563 0 000-3.124h-1.855v-6.104c0-.863-.7-1.562-1.563-1.562h-5.937v-3.61c0-.863-.7-1.562-1.563-1.562h-5.937v-2.59c0-.863-.7-1.563-1.563-1.563h-7.5c-.863 0-1.562.7-1.562 1.563v15.427h-3.125V34.495a1.563 1.563 0 00-3.125 0v16.99c0 .863.7 1.563 1.562 1.563zm27.188-7.665v4.54h-4.375v-4.54h4.375zm-7.5-5.172v9.713h-4.375V40.21h4.375zm-11.875-4.153h4.375v13.866h-4.375V36.056z" fill="#2B7AF1"/><path d="M48.823 63.745H16.49a1.563 1.563 0 000 3.125h32.334a1.563 1.563 0 000-3.125z" fill="url(#paint0_linear)"/><path d="M48.823 57.495h-26a1.563 1.563 0 000 3.125h26a1.563 1.563 0 000-3.125z" fill="url(#paint1_linear)"/><path d="M16.49 60.62c.41 0 .813-.167 1.104-.457.29-.291.458-.694.458-1.105 0-.411-.167-.814-.458-1.105a1.574 1.574 0 00-1.105-.458c-.41 0-.814.168-1.104.458-.291.29-.458.694-.458 1.105 0 .41.167.814.458 1.105.29.29.693.457 1.104.457z" fill="url(#paint2_linear)"/><path d="M48.823 69.995H16.49a1.563 1.563 0 000 3.125h32.334a1.563 1.563 0 000-3.125z" fill="url(#paint3_linear)"/><path d="M59.531 28.777c-.41 0-.814.167-1.104.457a1.574 1.574 0 00-.458 1.105c0 .411.167.814.458 1.105.29.29.693.458 1.104.458.411 0 .814-.168 1.105-.458.29-.29.458-.694.458-1.105 0-.41-.167-.814-.458-1.105a1.574 1.574 0 00-1.105-.457z" fill="url(#paint4_linear)"/></g><defs><linearGradient id="paint0_linear" x1="14.927" y1="65.308" x2="50.319" y2="63.687" gradientUnits="userSpaceOnUse"><stop stop-color="#FF7A00"/><stop offset="1" stop-color="#FFB039"/></linearGradient><linearGradient id="paint1_linear" x1="21.26" y1="59.058" x2="50.35" y2="57.964" gradientUnits="userSpaceOnUse"><stop stop-color="#FF7A00"/><stop offset="1" stop-color="#FFB039"/></linearGradient><linearGradient id="paint2_linear" x1="14.927" y1="59.058" x2="18.052" y2="59.045" gradientUnits="userSpaceOnUse"><stop stop-color="#FF7A00"/><stop offset="1" stop-color="#FFB039"/></linearGradient><linearGradient id="paint3_linear" x1="14.927" y1="71.558" x2="50.319" y2="69.937" gradientUnits="userSpaceOnUse"><stop stop-color="#FF7A00"/><stop offset="1" stop-color="#FFB039"/></linearGradient><linearGradient id="paint4_linear" x1="57.969" y1="30.339" x2="61.094" y2="30.326" gradientUnits="userSpaceOnUse"><stop stop-color="#FF7A00"/><stop offset="1" stop-color="#FFB039"/></linearGradient><clipPath id="clip0"><path fill="#fff" d="M0 0h80v80H0z"/></clipPath></defs></svg>