<svg width="40" height="40" fill="none" xmlns="http://www.w3.org/2000/svg"><circle cx="20" cy="20" r="20" fill="#2B7AF1"/><path d="M26.58 12H14.42C13.045 12 12 13.046 12 14.42v12.16c0 1.373 1.046 2.42 2.42 2.42h12.16c1.374 0 2.42-1.047 2.42-2.42V14.419C29 13.046 27.954 12 26.58 12zM20.5 25.6c2.811 0 5.1-2.223 5.1-4.904 0-.457-.065-.98-.196-1.373h1.438v6.931a.655.655 0 01-.653.654H14.812a.655.655 0 01-.654-.654v-6.996h1.504a4.98 4.98 0 00-.197 1.373c-.065 2.746 2.224 4.97 5.035 4.97zm0-1.961c-1.83 0-3.27-1.439-3.27-3.204 0-1.765 1.44-3.204 3.27-3.204s3.27 1.438 3.27 3.204c0 1.83-1.44 3.204-3.27 3.204zm6.277-6.996a.726.726 0 01-.72.719h-1.83a.726.726 0 01-.72-.72v-1.765c0-.392.328-.72.72-.72h1.83c.393 0 .72.328.72.72v1.766z" fill="#fff"/></svg>