<svg width="40" height="40" fill="none" xmlns="http://www.w3.org/2000/svg"><circle cx="20" cy="20" r="20" fill="#2B7AF1"/><path d="M28.402 13H11.598a.61.61 0 00-.422.169.565.565 0 00-.175.406v1.158c0 .053.06.114.11.139l8.832 4.856a.154.154 0 00.15-.001l8.567-4.85c.048-.026.175-.095.223-.126.058-.038.118-.072.118-.14v-1.036a.565.565 0 00-.175-.406.61.61 0 00-.422-.169zm.523 3.478a.155.155 0 00-.15 0l-4.848 2.746a.147.147 0 00-.072.103.138.138 0 00.038.118l4.848 5.03a.148.148 0 00.11.047.15.15 0 00.105-.042.141.141 0 00.044-.102v-7.775a.14.14 0 00-.02-.072.146.146 0 00-.055-.053zm-6.395 3.668a.151.151 0 00-.185-.027l-1.943 1.1a.782.782 0 01-.75.005l-1.71-.94a.154.154 0 00-.175.02L11.273 26.1a.143.143 0 00-.046.12.14.14 0 00.023.063.13.13 0 00.05.046.595.595 0 00.297.085H28.23c.03 0 .058-.008.082-.024a.145.145 0 00.066-.144.141.141 0 00-.038-.074l-5.81-6.027zm-6.192-.528a.144.144 0 00.047-.122.146.146 0 00-.074-.109l-5.088-2.797a.153.153 0 00-.203.054.14.14 0 00-.02.072v7.34a.14.14 0 00.024.078.148.148 0 00.065.053.154.154 0 00.162-.027l5.087-4.542z" fill="#fff"/></svg>