<svg width="81" height="80" fill="none" xmlns="http://www.w3.org/2000/svg"><path d="M54.43 51.306c-1.895 0-3.437-1.335-3.437-2.975 0-1.64 1.542-2.976 3.437-2.976 1.896 0 3.438 1.335 3.438 2.976a1.563 1.563 0 003.125 0c0-2.864-2.134-5.271-5-5.925v-.812a1.563 1.563 0 00-3.125 0v.813c-2.867.653-5 3.06-5 5.924 0 3.363 2.944 6.1 6.562 6.1 1.896 0 3.438 1.335 3.438 2.975 0 1.64-1.542 2.976-3.438 2.976-1.895 0-3.437-1.335-3.437-2.976a1.563 1.563 0 00-3.125 0c0 2.864 2.133 5.271 5 5.924v.675a1.563 1.563 0 003.125 0v-.675c2.866-.653 5-3.06 5-5.924 0-3.364-2.944-6.1-6.563-6.1z" fill="url(#paint0_linear)"/><path d="M71.544 42.012a20.357 20.357 0 00-8.316-7.36 1.562 1.562 0 10-1.354 2.817c5.924 2.847 9.751 8.931 9.751 15.5 0 2.81-.693 5.598-2.003 8.06a1.562 1.562 0 102.759 1.469 20.354 20.354 0 002.37-9.53c0-3.9-1.11-7.688-3.207-10.956z" fill="#2B7AF1"/><path d="M56.886 32.657h-.105a1.562 1.562 0 100 3.124h.098a1.563 1.563 0 00.007-3.124z" fill="url(#paint1_linear)"/><path d="M47.001 68.469c-5.923-2.848-9.75-8.932-9.75-15.5 0-2.81.692-5.598 2.003-8.061a1.562 1.562 0 10-2.759-1.468 20.354 20.354 0 00-2.37 9.529c0 3.9 1.11 7.689 3.206 10.957a20.36 20.36 0 008.316 7.36 1.563 1.563 0 001.354-2.817z" fill="#2B7AF1"/><path d="M52.094 70.156h-.09a1.563 1.563 0 00-.014 3.125h.104a1.563 1.563 0 000-3.125z" fill="url(#paint2_linear)"/><path d="M61.532 27.37a7.169 7.169 0 00-.694-1.276h4.068c3.963 0 7.188-3.225 7.188-7.188 0-3.963-3.225-7.187-7.188-7.187H52.394a7.146 7.146 0 001.262-4.063c0-3.963-3.224-7.187-7.187-7.187H8.187C4.224.469 1 3.693 1 7.656s3.224 7.188 7.187 7.188H20.7a7.146 7.146 0 00-1.262 4.062c0 1.507.466 2.906 1.262 4.063h-4.075c-3.963 0-7.188 3.224-7.188 7.187a7.176 7.176 0 002.722 5.625 7.176 7.176 0 000 11.25 7.176 7.176 0 000 11.25 7.176 7.176 0 00-2.722 5.625c0 3.963 3.225 7.188 7.188 7.188h18.414c4.85 5.188 11.752 8.437 19.399 8.437C69.084 79.531 81 67.615 81 52.97c0-12.19-8.255-22.487-19.468-25.6zm3.374-12.526a4.067 4.067 0 014.063 4.062 4.067 4.067 0 01-4.063 4.063H26.625a4.067 4.067 0 01-4.063-4.063 4.067 4.067 0 014.063-4.062h38.281zM8.187 11.719a4.067 4.067 0 01-4.062-4.063 4.067 4.067 0 014.062-4.062H46.47a4.067 4.067 0 014.062 4.062 4.067 4.067 0 01-4.062 4.063H8.187zm8.438 14.375h38.281c.63 0 1.232.146 1.773.408a26.797 26.797 0 00-2.241-.096c-7.336 0-13.986 2.99-18.797 7.813H16.625a4.067 4.067 0 01-4.063-4.063 4.067 4.067 0 014.063-4.062zm0 11.25h16.346a26.489 26.489 0 00-4.016 8.125h-12.33a4.067 4.067 0 01-4.063-4.063 4.067 4.067 0 014.063-4.062zm0 11.25h11.612a26.628 26.628 0 00-.096 8.125H16.625a4.067 4.067 0 01-4.063-4.063 4.067 4.067 0 014.063-4.062zm0 19.375a4.067 4.067 0 01-4.063-4.063 4.067 4.067 0 014.063-4.062h12.154a26.46 26.46 0 003.749 8.125H16.625zm37.813 8.437C41.514 76.406 31 65.892 31 52.97c0-12.925 10.514-23.44 23.438-23.44 12.923 0 23.437 10.514 23.437 23.438 0 12.923-10.514 23.437-23.437 23.437z" fill="#2B7AF1"/><defs><linearGradient id="paint0_linear" x1="47.868" y1="52.8" x2="60.995" y2="52.772" gradientUnits="userSpaceOnUse"><stop stop-color="#FF7A00"/><stop offset="1" stop-color="#FFB039"/></linearGradient><linearGradient id="paint1_linear" x1="55.219" y1="34.219" x2="58.442" y2="34.206" gradientUnits="userSpaceOnUse"><stop stop-color="#FF7A00"/><stop offset="1" stop-color="#FFB039"/></linearGradient><linearGradient id="paint2_linear" x1="50.434" y1="71.719" x2="53.657" y2="71.705" gradientUnits="userSpaceOnUse"><stop stop-color="#FF7A00"/><stop offset="1" stop-color="#FFB039"/></linearGradient></defs></svg>