<svg width="40" height="40" fill="none" xmlns="http://www.w3.org/2000/svg"><circle cx="20" cy="20" r="20" fill="#2B7AF1"/><path d="M29.806 25.115c0-.083-.083-.083-.083-.166-.332-.664-1.08-1.494-2.076-2.408-.498-.415-.747-.747-.913-.913-.249-.332-.249-.581-.166-.913.083-.25.415-.664.996-1.412.332-.415.498-.664.748-.913 1.245-1.66 1.826-2.74 1.66-3.238l-.083-.083c-.083-.083-.166-.166-.332-.166-.166-.083-.415-.083-.664 0h-3.736l-.083.083c-.083.083-.083.083-.083.166-.332.914-.747 1.66-1.163 2.49-.249.416-.498.831-.747 1.163-.249.332-.415.581-.581.747-.166.166-.332.25-.415.416-.083.083-.25.166-.25.083-.082 0-.165 0-.165-.083l-.25-.25c-.082-.082-.082-.248-.165-.415v-4.151c0-.083-.083-.249-.083-.332l-.25-.249c-.082-.083-.248-.083-.332-.166a7.44 7.44 0 00-1.494-.166c-1.328 0-2.242.083-2.574.25-.166.082-.332.165-.415.331-.166.166-.166.25-.083.25.415.082.747.248.913.497l.083.166c.084.083.084.25.166.499.084.249.084.498.084.83v1.328c0 .415-.084.664-.084.913 0 .25-.082.415-.166.498-.082.167-.082.25-.166.25 0 0 0 .083-.083.083s-.166.083-.332.083c-.083 0-.249-.083-.332-.166a1 1 0 01-.415-.415c-.166-.166-.332-.416-.498-.748-.166-.332-.415-.664-.581-1.162l-.166-.332c-.083-.166-.25-.498-.415-.913-.166-.416-.332-.748-.498-1.163a1.146 1.146 0 00-.25-.332h-.083s-.083-.083-.166-.083-.166-.083-.249-.083H9.797c-.332 0-.498.083-.58.166l-.084.083v.166c0 .083 0 .166.083.332.415.997.914 1.993 1.412 2.99.498.913.996 1.743 1.328 2.324.415.581.747 1.162 1.162 1.66.415.498.665.83.748.997l.332.332.249.249c.166.166.415.415.747.664.332.249.747.498 1.162.747.415.25.914.415 1.412.581.58.166 1.079.25 1.577.166h1.245a.754.754 0 00.582-.249l.083-.083c0-.083.083-.083.083-.166v-.332c0-.332 0-.581.083-.83.083-.25.083-.415.166-.581.083-.166.166-.25.249-.332l.166-.166h.083c.166-.083.415 0 .581.166.25.166.498.415.664.664.166.249.415.498.747.83.332.332.582.581.748.664l.249.166c.166.083.332.166.58.25.25.082.416.082.582.082l2.823-.083c.249 0 .498-.083.664-.166.166-.083.249-.166.249-.332v-.332c-.166-.166-.166-.249-.166-.332z" fill="#fff"/></svg>