<svg width="80" height="80" fill="none" xmlns="http://www.w3.org/2000/svg"><g clip-path="url(#clip0)"><path d="M79.846 43.695a31.623 31.623 0 00-9.09-19.179 31.376 31.376 0 00-15.434-8.475v-3.97a5.321 5.321 0 004.03-5.155 5.318 5.318 0 00-5.312-5.312H42.79a5.319 5.319 0 00-5.313 5.312 5.322 5.322 0 004.03 5.155v3.981a31.375 31.375 0 00-15.387 8.465 31.729 31.729 0 00-2.653 3.01 1.543 1.543 0 00-.118-.006H12.214a1.563 1.563 0 000 3.125h9.127a31.323 31.323 0 00-2.773 6.006H1.563a1.563 1.563 0 000 3.125h16.122a31.77 31.77 0 00-.775 6.006H10a1.563 1.563 0 000 3.125h6.96a31.69 31.69 0 00.975 6.006H7.813a1.563 1.563 0 000 3.125h11.12a31.38 31.38 0 007.187 11.115 31.622 31.622 0 0019.198 9.09c1.033.102 2.066.153 3.097.153 6.097 0 12.117-1.765 17.225-5.091a1.562 1.562 0 10-1.705-2.619c-11.181 7.281-26.155 5.707-35.605-3.743-11.088-11.088-11.088-29.13 0-40.218 11.087-11.087 29.129-11.087 40.217 0 9.438 9.438 11.02 24.4 3.764 35.575a1.563 1.563 0 002.62 1.702c3.878-5.971 5.623-13.183 4.915-20.308zM40.602 6.916A2.19 2.19 0 0142.79 4.73h11.25a2.19 2.19 0 012.187 2.187 2.19 2.19 0 01-2.187 2.188H42.79a2.19 2.19 0 01-2.188-2.188zm4.03 8.6v-3.287h7.565v3.28a31.835 31.835 0 00-7.565.006z" fill="#2B7AF1"/><path d="M69.652 66.486c-.412 0-.814.167-1.104.457-.292.29-.458.694-.458 1.105a1.565 1.565 0 002.667 1.105c.29-.291.458-.694.458-1.105 0-.411-.167-.814-.458-1.105a1.577 1.577 0 00-1.105-.457z" fill="url(#paint0_linear)"/><path d="M48.438 22.596c-13.365 0-24.239 10.873-24.239 24.239 0 13.366 10.874 24.24 24.24 24.24 13.365 0 24.239-10.874 24.239-24.24 0-13.366-10.874-24.24-24.24-24.24zm0 45.353c-11.642 0-21.114-9.472-21.114-21.114 0-11.642 9.472-21.114 21.114-21.114 11.643 0 21.115 9.472 21.115 21.114 0 11.642-9.472 21.114-21.114 21.114z" fill="url(#paint1_linear)"/><path d="M58.322 34.741l-7.739 7.74a4.826 4.826 0 00-2.145-.502 4.82 4.82 0 00-2.144.501l-3.464-3.463a1.563 1.563 0 00-2.21 2.21l3.464 3.463c-.32.647-.5 1.375-.5 2.145a4.86 4.86 0 004.854 4.855 4.86 4.86 0 004.856-4.855c0-.77-.18-1.498-.5-2.145l7.511-7.512.227-.227a1.563 1.563 0 00-2.21-2.21zm-9.884 13.824c-.954 0-1.73-.776-1.73-1.73s.776-1.73 1.73-1.73 1.73.776 1.73 1.73-.776 1.73-1.73 1.73zm16.707-3.274h-1.448a1.563 1.563 0 000 3.125h1.448a1.563 1.563 0 000-3.125zm-31.965-.038h-1.448a1.563 1.563 0 000 3.125h1.447a1.563 1.563 0 000-3.125zm15.278-12.114c.862 0 1.562-.7 1.562-1.563v-1.448a1.563 1.563 0 00-3.125 0v1.448c0 .863.7 1.563 1.563 1.563zm-.038 27.392c-.863 0-1.563.7-1.563 1.563v1.447a1.563 1.563 0 003.125 0v-1.447c0-.863-.7-1.563-1.563-1.563z" fill="#2B7AF1"/><path d="M1.563 54.913c-.411 0-.815.168-1.105.458-.29.29-.458.694-.458 1.105 0 .413.167.814.458 1.105.29.29.694.457 1.105.457.41 0 .814-.167 1.104-.457.29-.291.458-.694.458-1.105 0-.411-.167-.814-.458-1.105a1.573 1.573 0 00-1.104-.458z" fill="url(#paint2_linear)"/></g><defs><linearGradient id="paint0_linear" x1="68.09" y1="68.048" x2="71.215" y2="68.035" gradientUnits="userSpaceOnUse"><stop stop-color="#FF7A00"/><stop offset="1" stop-color="#FFB039"/></linearGradient><linearGradient id="paint1_linear" x1="24.199" y1="46.835" x2="72.687" y2="46.639" gradientUnits="userSpaceOnUse"><stop stop-color="#FF7A00"/><stop offset="1" stop-color="#FFB039"/></linearGradient><linearGradient id="paint2_linear" x1="0" y1="56.476" x2="3.126" y2="56.463" gradientUnits="userSpaceOnUse"><stop stop-color="#FF7A00"/><stop offset="1" stop-color="#FFB039"/></linearGradient><clipPath id="clip0"><path fill="#fff" d="M0 0h80v80H0z"/></clipPath></defs></svg>