<svg width="80" height="80" fill="none" xmlns="http://www.w3.org/2000/svg"><g clip-path="url(#clip0)"><path d="M77.25 26.201h-.764l-7.16-19.276a4.347 4.347 0 00-4.057-2.821H14.73c-1.8 0-3.43 1.134-4.058 2.821l-7.16 19.276H2.75A2.753 2.753 0 000 28.951v2.21a2.753 2.753 0 002.75 2.75h.407v25.686a1.172 1.172 0 102.344 0V33.911h18.4a3.83 3.83 0 002.726-1.129L40 19.41l13.374 13.373a3.83 3.83 0 002.725 1.13h18.4v3.106a1.172 1.172 0 102.344 0v-3.107h.407a2.753 2.753 0 002.75-2.75v-2.21a2.754 2.754 0 00-2.75-2.75zM12.87 7.741a1.993 1.993 0 011.861-1.293H65.27c.825 0 1.573.52 1.86 1.293l6.857 18.46h-16.29l-14.97-14.97A3.83 3.83 0 0040 10.1a3.83 3.83 0 00-2.726 1.13L22.304 26.2H6.014L12.87 7.74zm64.786 23.42a.407.407 0 01-.406.407H56.1c-.404 0-.784-.158-1.07-.443l-14.2-14.202a1.171 1.171 0 00-1.658 0L24.97 31.125a1.502 1.502 0 01-1.069.443H2.75a.407.407 0 01-.406-.407v-2.21c0-.224.182-.406.406-.406h20.04c.31 0 .608-.123.828-.343l15.314-15.314A1.501 1.501 0 0140 12.445a1.5 1.5 0 011.069.443l15.313 15.314c.22.22.518.343.83.343H77.25c.224 0 .407.182.407.406v2.21z" fill="#2B7AF1"/><path d="M70.463 66.426c.647 0 1.172-.525 1.172-1.172V44.42c0-.648-.525-1.172-1.172-1.172H54.679c-.648 0-1.172.524-1.172 1.172v20.834c0 .647.524 1.172 1.172 1.172h15.784zm-1.172-7.395h-5.548v-5.548h5.548v5.549zm-7.892 0H55.85v-5.548h5.548v5.549zm7.892 5.051H55.85v-2.707h13.44v2.707zm0-12.943h-5.548v-5.548h5.548v5.548zm-7.892-5.547v5.548H55.85v-5.548h5.548zM25.321 66.426c.647 0 1.172-.525 1.172-1.172V44.42c0-.648-.525-1.172-1.172-1.172H9.537c-.647 0-1.172.524-1.172 1.172v20.834c0 .647.525 1.172 1.172 1.172h15.784zm-1.172-7.395h-5.548v-5.548h5.548v5.549zm-7.892 0H10.71v-5.548h5.548v5.549zm7.892 5.051H10.71v-2.707h13.44v2.707zm0-12.943h-5.548v-5.548h5.548v5.548zm-7.892-5.547v5.548H10.71v-5.548h5.548z" fill="#2B7AF1"/><path d="M43.788 48.298h-7.576c-.647 0-1.172.525-1.172 1.172v5.051c0 .647.525 1.172 1.172 1.172h7.576c.648 0 1.172-.525 1.172-1.172v-5.05c0-.648-.525-1.172-1.172-1.172zm-1.172 5.051h-5.232v-2.707h5.232v2.707z" fill="url(#paint0_linear)"/><path d="M46.223 33.529A6.23 6.23 0 0040 27.306a6.23 6.23 0 00-6.223 6.223A6.23 6.23 0 0040 39.752a6.23 6.23 0 006.223-6.223zm-10.102 0A3.883 3.883 0 0140 29.649a3.883 3.883 0 013.879 3.88A3.884 3.884 0 0140 37.408a3.883 3.883 0 01-3.879-3.88z" fill="url(#paint1_linear)"/><path d="M78.828 68.186h-1.985V42.5a1.172 1.172 0 10-2.344 0v25.686H50.011V44.419c0-.647-.525-1.171-1.172-1.171H31.16c-.647 0-1.172.524-1.172 1.172v23.766H5.5v-3.107a1.172 1.172 0 10-2.343 0v3.107H1.172C.525 68.186 0 68.71 0 69.358v5.366c0 .648.525 1.172 1.172 1.172h77.656c.647 0 1.172-.524 1.172-1.172v-5.366c0-.647-.525-1.172-1.172-1.172zm-46.495-8.547h1.67a1.172 1.172 0 100-2.344h-1.67V45.591h15.334v22.595H32.333v-8.547zm45.323 13.913H2.344V70.53h75.312v3.022z" fill="#2B7AF1"/></g><defs><linearGradient id="paint0_linear" x1="35.04" y1="51.996" x2="44.962" y2="51.942" gradientUnits="userSpaceOnUse"><stop stop-color="#FF7A00"/><stop offset="1" stop-color="#FFB039"/></linearGradient><linearGradient id="paint1_linear" x1="33.777" y1="33.529" x2="46.225" y2="33.479" gradientUnits="userSpaceOnUse"><stop stop-color="#FF7A00"/><stop offset="1" stop-color="#FFB039"/></linearGradient><clipPath id="clip0"><path fill="#fff" d="M0 0h80v80H0z"/></clipPath></defs></svg>