<svg width="88" height="88" fill="none" xmlns="http://www.w3.org/2000/svg"><path d="M5.978 68.355a1.297 1.297 0 001.29-1.288c0-.341-.138-.673-.38-.914a1.303 1.303 0 00-.91-.376c-.34 0-.672.138-.913.376a1.306 1.306 0 00-.378.913c0 .338.139.67.378.911a1.3 1.3 0 00.913.378z" fill="url(#paint0_linear)"/><path d="M85.852 35.837h-7.658a2.15 2.15 0 00-2.148 2.148v.612h-3.714a2.15 2.15 0 00-2.148 2.149v2.66H49.98a4.147 4.147 0 00-2.955 1.229l-.546.547-.137-.137c-.932-.935-2.584-1.641-3.845-1.643H17.815v-2.657a2.15 2.15 0 00-2.148-2.148h-3.713v-.613a2.151 2.151 0 00-2.148-2.148H2.148A2.15 2.15 0 000 37.984v33.108a2.15 2.15 0 002.148 2.148h7.658a2.15 2.15 0 002.148-2.148v-.612h3.713a2.151 2.151 0 002.149-2.149v-1.04l1.55 1.108a4.425 4.425 0 001.263 3.496 4.377 4.377 0 003.124 1.284l.093-.002a4.41 4.41 0 001.278 3.226 4.372 4.372 0 003.123 1.284l.094-.001a4.412 4.412 0 001.277 3.226 4.377 4.377 0 003.124 1.284l.092-.002a4.412 4.412 0 001.278 3.227 4.374 4.374 0 003.124 1.284 4.61 4.61 0 003.283-1.371l.304-.306a4.7 4.7 0 002.387.646 4.686 4.686 0 003.34-1.383l.39-.392a4.71 4.71 0 001.215-2.107 4.698 4.698 0 002.226.554 4.69 4.69 0 003.34-1.383l.39-.393a4.702 4.702 0 001.188-2.01 4.687 4.687 0 002.523.729 4.68 4.68 0 003.34-1.383l.39-.392a4.7 4.7 0 001.266-2.315 4.718 4.718 0 001.747.333c1.265 0 2.45-.491 3.34-1.383l.39-.391a4.748 4.748 0 00.589-5.97l1.3-.734v1.277a2.15 2.15 0 002.148 2.148h3.714v.614c0 1.184.964 2.148 2.148 2.148h7.658A2.15 2.15 0 0088 71.093V37.985a2.15 2.15 0 00-2.148-2.148zM9.376 70.662H2.578V38.415h6.798v32.247zm14.377-.061c-.499 0-.96-.187-1.298-.526-.739-.742-.7-1.986.087-2.776l.57-.573a2.05 2.05 0 011.458-.612c.499 0 .96.187 1.298.526.74.741.7 1.986-.087 2.775l-.571.573a2.045 2.045 0 01-1.457.613zm4.494 4.508c-.499 0-.96-.186-1.297-.526-.74-.74-.7-1.986.086-2.775l.571-.573a2.049 2.049 0 011.458-.612c.499 0 .96.186 1.297.524.739.742.7 1.987-.086 2.777l-.572.572a2.045 2.045 0 01-1.457.613zm4.495 4.509c-.5 0-.96-.187-1.298-.526-.739-.741-.7-1.986.086-2.775l.572-.574a2.047 2.047 0 011.457-.613c.498 0 .96.188 1.297.527.74.74.7 1.986-.086 2.775l-.572.573a2.045 2.045 0 01-1.456.613zm5.95 3.896a2.048 2.048 0 01-1.456.613c-.5 0-.96-.187-1.298-.527-.739-.74-.7-1.986.087-2.774l.57-.574a2.048 2.048 0 011.459-.613c.498 0 .959.187 1.297.527.739.74.7 1.986-.086 2.774l-.572.574zM66.47 71.937l-.39.392c-.402.403-.94.625-1.515.625a2.122 2.122 0 01-1.513-.625L52.978 62.221a1.29 1.29 0 00-1.826 1.82l8.575 8.604a2.164 2.164 0 010 3.05l-.391.39a2.12 2.12 0 01-1.514.626 2.12 2.12 0 01-1.514-.625l-9.908-9.94a1.289 1.289 0 10-1.825 1.82l7.667 7.693.043.042a2.164 2.164 0 010 3.05l-.39.39a2.12 2.12 0 01-1.514.626 2.12 2.12 0 01-1.514-.625l-10.8-10.834a1.29 1.29 0 00-1.826 1.819l8.873 8.903c.838.84.838 2.208 0 3.048l-.39.392c-.402.403-.94.625-1.514.625-.343 0-.673-.08-.969-.231.491-1.558.14-3.31-1.064-4.52a4.375 4.375 0 00-3.123-1.283l-.094.002a4.41 4.41 0 00-1.277-3.227 4.375 4.375 0 00-3.124-1.284l-.093.002a4.413 4.413 0 00-1.278-3.227 4.375 4.375 0 00-3.123-1.283l-.093.002a4.41 4.41 0 00-1.278-3.227 4.377 4.377 0 00-3.124-1.284 4.606 4.606 0 00-3.283 1.371l-.571.573c-.14.14-.268.287-.386.44l-2.514-1.799v-3.065a1.29 1.29 0 00-2.578 0v6.846h-3.284V41.176h3.284v13.692a1.289 1.289 0 102.578 0V45.98h24.68c.575 0 1.576.438 2.02.884l.143.143-9.145 9.174a5.206 5.206 0 00-1.528 3.588 4.912 4.912 0 001.428 3.594 4.893 4.893 0 003.492 1.434 5.161 5.161 0 003.678-1.537l3.128-3.137a7.956 7.956 0 003.958 1.06c2.12 0 4.111-.827 5.609-2.33l.594-.596 10.597 10.63c.838.84.838 2.209 0 3.05zm6.292-4.036v-11.83a1.29 1.29 0 00-2.578 0v8.023l-3.106 1.752-9.384-9.414 1.397-1.402a1.29 1.29 0 00-1.826-1.82l-3.813 3.825a5.306 5.306 0 01-3.782 1.572 5.35 5.35 0 01-3.318-1.156 1.29 1.29 0 00-1.714.099l-3.88 3.892c-.5.502-1.158.778-1.852.778a2.33 2.33 0 01-1.666-.676 2.358 2.358 0 01-.677-1.725c.014-.683.29-1.329.777-1.818l11.51-11.546c.302-.303.704-.47 1.13-.47h20.204v3.898a1.288 1.288 0 102.578 0v-8.708h3.284v26.726h-3.284zm12.66 2.761h-6.798V38.415h6.798v32.247z" fill="#2B7AF1"/><path d="M82.024 68.355a1.3 1.3 0 00.911-.378 1.297 1.297 0 000-1.824 1.306 1.306 0 00-.911-.376c-.34 0-.672.138-.912.376a1.298 1.298 0 00-.38.913 1.298 1.298 0 001.291 1.29z" fill="url(#paint1_linear)"/><path d="M44 41.426a14.71 14.71 0 007.535-2.072 1.29 1.29 0 00-1.32-2.214A12.125 12.125 0 0144 38.848c-6.715 0-12.178-5.481-12.178-12.22 0-6.738 5.463-12.22 12.178-12.22 6.714 0 12.178 5.482 12.178 12.22 0 2.213-.596 4.38-1.721 6.267a1.288 1.288 0 102.213 1.32 14.813 14.813 0 002.086-7.587c0-8.16-6.62-14.799-14.756-14.799-8.137 0-14.756 6.639-14.756 14.799S35.864 41.426 44 41.426z" fill="#2B7AF1"/><path d="M39.555 24.679v-1.39a1.289 1.289 0 10-2.578 0v1.39a1.289 1.289 0 102.578 0z" fill="url(#paint2_linear)"/><path d="M51.023 24.679v-1.39a1.289 1.289 0 10-2.578 0v1.39a1.289 1.289 0 102.578 0z" fill="url(#paint3_linear)"/><path d="M44 34.319c3.075 0 5.577-2.297 5.577-5.12a1.29 1.29 0 00-2.578 0c0 1.4-1.345 2.541-2.999 2.541-1.654 0-2.999-1.14-2.999-2.541a1.29 1.29 0 00-2.578 0c0 2.823 2.501 5.12 5.577 5.12z" fill="url(#paint4_linear)"/><path d="M65.469 19.02c4.852 0 8.798-3.957 8.798-8.822 0-1.314-.29-2.56-.805-3.682l1.103-1.107a1.29 1.29 0 00-1.825-1.82l-.722.724a8.767 8.767 0 00-6.549-2.938c-4.851 0-8.798 3.958-8.798 8.822 0 4.865 3.946 8.823 8.798 8.823zm0-15.067a6.2 6.2 0 014.725 2.19l-4.725 4.74-2.745-2.755a1.29 1.29 0 00-1.827 1.82l3.295 3.306c.34.342.794.53 1.277.53a1.79 1.79 0 001.277-.53l4.714-4.73c.149.533.23 1.094.23 1.674 0 3.443-2.791 6.244-6.221 6.244s-6.22-2.801-6.22-6.244c0-3.443 2.79-6.245 6.22-6.245z" fill="#2B7AF1"/><path d="M14.05 18.86l-.456 2.655c-.148.864.2 1.721.91 2.237a2.29 2.29 0 002.407.174l2.385-1.254 2.384 1.253a2.295 2.295 0 002.409-.173 2.274 2.274 0 00.91-2.237l-.456-2.654 1.929-1.881a2.27 2.27 0 00.578-2.344 2.273 2.273 0 00-1.846-1.556l-2.666-.387-1.191-2.417a2.274 2.274 0 00-2.05-1.274c-.878 0-1.663.489-2.051 1.275l-1.193 2.416-2.666.387a2.273 2.273 0 00-1.845 1.556 2.273 2.273 0 00.578 2.344l1.93 1.88zm3.045-3.713c.42-.062.783-.325.97-.706l1.23-2.494 1.231 2.494c.188.38.551.644.971.705l2.752.4-1.991 1.94a1.289 1.289 0 00-.371 1.142l.47 2.74-2.461-1.293a1.29 1.29 0 00-1.2 0l-2.461 1.294.47-2.74a1.289 1.289 0 00-.371-1.142l-1.991-1.941 2.752-.4z" fill="url(#paint5_linear)"/><defs><linearGradient id="paint0_linear" x1="4.687" y1="67.066" x2="7.268" y2="67.056" gradientUnits="userSpaceOnUse"><stop stop-color="#FF7A00"/><stop offset="1" stop-color="#FFB039"/></linearGradient><linearGradient id="paint1_linear" x1="80.733" y1="67.066" x2="83.311" y2="67.056" gradientUnits="userSpaceOnUse"><stop stop-color="#FF7A00"/><stop offset="1" stop-color="#FFB039"/></linearGradient><linearGradient id="paint2_linear" x1="36.977" y1="23.984" x2="39.556" y2="23.977" gradientUnits="userSpaceOnUse"><stop stop-color="#FF7A00"/><stop offset="1" stop-color="#FFB039"/></linearGradient><linearGradient id="paint3_linear" x1="48.445" y1="23.984" x2="51.023" y2="23.977" gradientUnits="userSpaceOnUse"><stop stop-color="#FF7A00"/><stop offset="1" stop-color="#FFB039"/></linearGradient><linearGradient id="paint4_linear" x1="38.423" y1="31.114" x2="49.579" y2="31.036" gradientUnits="userSpaceOnUse"><stop stop-color="#FF7A00"/><stop offset="1" stop-color="#FFB039"/></linearGradient><linearGradient id="paint5_linear" x1="11.428" y1="16.595" x2="27.167" y2="16.529" gradientUnits="userSpaceOnUse"><stop stop-color="#FF7A00"/><stop offset="1" stop-color="#FFB039"/></linearGradient></defs></svg>