<svg width="80" height="80" fill="none" xmlns="http://www.w3.org/2000/svg"><g clip-path="url(#clip0)"><path d="M72.874 13.814C61.867 10.798 50.795 6.102 40.856.234a1.682 1.682 0 00-1.711 0c-10.226 6.037-20.7 10.479-32.02 13.58-.73.2-1.237.865-1.237 1.623v17.195c0 17.707 8.168 29.427 15.021 36.142C28.287 76.001 36.88 80 40 80c3.12 0 11.714-3.998 19.092-11.227 6.852-6.713 15.02-18.434 15.02-36.141V15.437c0-.758-.507-1.423-1.238-1.623zm-2.127 18.818c0 16.538-7.62 27.474-14.011 33.737C49.48 73.478 41.724 76.634 40 76.634c-1.724 0-9.48-3.156-16.736-10.265-6.391-6.263-14.01-17.2-14.01-33.737V16.715C20.077 13.64 30.158 9.352 40 3.633c9.596 5.567 20.18 10.07 30.746 13.081v15.918z" fill="#2B7AF1"/><path d="M25.084 16.526a1.683 1.683 0 00-2.182-.948 136.98 136.98 0 01-9.172 3.24c-.701.22-1.179.87-1.179 1.606v6.499a1.683 1.683 0 003.366 0v-5.27a140.22 140.22 0 008.218-2.944 1.682 1.682 0 00.95-2.183z" fill="#2B7AF1"/><path d="M28.28 16.846c.227 0 .456-.046.676-.142l.03-.013a1.68 1.68 0 00.862-2.215 1.687 1.687 0 00-2.22-.864l-.027.011a1.679 1.679 0 00-.865 2.214 1.684 1.684 0 001.545 1.009z" fill="url(#paint0_linear)"/><path d="M60.05 54.263a1.683 1.683 0 00-2.329.488 40.96 40.96 0 01-4.836 6.04 42.98 42.98 0 01-4.827 4.295 1.683 1.683 0 002.04 2.677 46.383 46.383 0 005.206-4.632 44.285 44.285 0 005.235-6.539 1.683 1.683 0 00-.489-2.329z" fill="#2B7AF1"/><path d="M44.15 67.725l-.097.057a1.683 1.683 0 001.686 2.913l.111-.066a1.683 1.683 0 10-1.7-2.904z" fill="url(#paint1_linear)"/><path d="M28.53 36.566a5.435 5.435 0 00-3.87-1.603 5.438 5.438 0 00-3.87 1.602 5.48 5.48 0 000 7.74l9.938 9.936a5.437 5.437 0 003.87 1.602 5.437 5.437 0 003.869-1.602L59.21 33.497a5.479 5.479 0 000-7.739 5.436 5.436 0 00-3.87-1.602 5.437 5.437 0 00-3.87 1.602L34.597 42.633l-6.067-6.068zm25.321-8.428a2.093 2.093 0 011.49-.616c.563 0 1.092.219 1.49.616a2.11 2.11 0 010 2.98L36.086 51.86a2.093 2.093 0 01-1.49.617 2.094 2.094 0 01-1.49-.617l-9.936-9.936a2.109 2.109 0 010-2.98 2.094 2.094 0 011.49-.616c.562 0 1.091.219 1.489.617l7.257 7.257a1.684 1.684 0 002.38 0L53.85 28.138z" fill="url(#paint2_linear)"/></g><defs><linearGradient id="paint0_linear" x1="26.594" y1="15.158" x2="29.992" y2="15.144" gradientUnits="userSpaceOnUse"><stop stop-color="#FF7A00"/><stop offset="1" stop-color="#FFB039"/></linearGradient><linearGradient id="paint1_linear" x1="43.213" y1="69.208" x2="46.684" y2="69.194" gradientUnits="userSpaceOnUse"><stop stop-color="#FF7A00"/><stop offset="1" stop-color="#FFB039"/></linearGradient><linearGradient id="paint2_linear" x1="19.191" y1="40" x2="60.818" y2="39.779" gradientUnits="userSpaceOnUse"><stop stop-color="#FF7A00"/><stop offset="1" stop-color="#FFB039"/></linearGradient><clipPath id="clip0"><path fill="#fff" d="M0 0h80v80H0z"/></clipPath></defs></svg>