<svg width="136" height="54" fill="none" xmlns="http://www.w3.org/2000/svg"><path d="M117.452.245v3.668h10.638c.38 0 .781.054 1.202.163.421.109.795.367 1.121.775.272.326.442.665.51 1.019.068.353.102.692.102 1.019v1.508h-9.375c-.57 0-1.202.06-1.895.183-.693.122-1.379.482-2.059 1.08-.815.707-1.324 1.522-1.528 2.445a13.008 13.008 0 00-.306 2.813c0 .408.014.87.041 1.386a9.53 9.53 0 00.224 1.59c.123.543.313 1.066.571 1.569a4.44 4.44 0 001.039 1.324c.625.544 1.284.856 1.977.938.693.081 1.338.122 1.936.122h10.312c.516 0 1.046-.048 1.589-.143a2.524 2.524 0 001.386-.713c.381-.38.619-.842.714-1.386a8.247 8.247 0 00.142-1.386V7.011c0-1.223-.149-2.262-.448-3.118-.299-.856-.679-1.515-1.141-1.977-.489-.516-1.128-.924-1.916-1.223a7.178 7.178 0 00-2.568-.448h-12.268zm13.573 11.82v4.972c0 .164-.014.32-.041.47-.027.148-.122.291-.286.427a.935.935 0 01-.55.224 7.82 7.82 0 01-.509.02h-6.644c-.299 0-.591-.067-.876-.203a2.414 2.414 0 01-.673-.449c-.298-.298-.482-.692-.55-1.181a9.171 9.171 0 01-.102-1.223c0-.788.068-1.345.204-1.671.136-.327.244-.544.326-.653.272-.353.591-.563.958-.631.367-.068.632-.102.795-.102h7.948zm-38.192 6.113h-1.956v3.668h24.333v-3.668h-1.916L106.528 2.12a3.982 3.982 0 00-1.039-1.467C105.014.217 104.205 0 103.064 0c-1.114 0-1.916.204-2.405.611-.489.408-.856.91-1.1 1.508l-6.726 16.06zm9.783-13.41c.054-.135.122-.264.203-.387.082-.122.163-.183.245-.183.136 0 .224.068.265.204.041.136.088.258.142.367l5.177 13.41H97.48l5.136-13.41zM89.654 21.847V.245h-4.769v8.64h-10.31V.246h-4.77v21.602h4.77v-9.293h10.311v9.293h4.77zm-23.232 0v-3.669H55.866c-.435 0-.877-.027-1.325-.081a4.604 4.604 0 01-1.284-.347 2.965 2.965 0 01-1.06-.774c-.299-.34-.53-.795-.693-1.365-.081-.326-.15-.788-.203-1.386a17.775 17.775 0 01-.082-1.59h12.554c.434 0 .849-.054 1.243-.163a2.437 2.437 0 001.08-.652c.462-.462.747-.985.856-1.569a9.247 9.247 0 00.163-1.692c0-.679-.041-1.351-.122-2.017a8.242 8.242 0 00-.47-1.916 6.639 6.639 0 00-.936-1.691c-.395-.517-.904-.978-1.529-1.386A8.132 8.132 0 0060.695.387a31.364 31.364 0 00-3.77-.224c-.516 0-1.114.014-1.793.04-.68.028-1.386.103-2.12.225-.733.122-1.46.32-2.18.591a6.531 6.531 0 00-1.977 1.182 6.135 6.135 0 00-1.406 1.712 8.263 8.263 0 00-.775 2.058 13.321 13.321 0 00-.326 2.446 61.7 61.7 0 00-.06 2.833c0 1.44.08 2.853.244 4.239.163 1.385.598 2.595 1.304 3.627.435.625.924 1.12 1.467 1.488a6.89 6.89 0 001.671.835c.571.19 1.155.306 1.753.347a25.7 25.7 0 001.712.06h11.983zM51.22 8.967c.027-.707.075-1.366.143-1.977.068-.611.346-1.189.835-1.732a3.916 3.916 0 011.08-.836 4.541 4.541 0 011.203-.427c.407-.082.801-.13 1.182-.143.38-.014.733-.02 1.06-.02.679 0 1.378.047 2.099.142.72.095 1.378.374 1.976.836.354.271.673.652.958 1.141.285.489.428 1.073.428 1.753 0 .298-.061.584-.183.855-.123.272-.415.408-.877.408H51.22zM2.472.245v3.668H13.11c.38 0 .781.054 1.202.163.421.109.795.367 1.121.775.272.326.442.665.51 1.019.068.353.101.692.101 1.019v1.508H6.67c-.57 0-1.202.06-1.895.183-.693.122-1.38.482-2.059 1.08-.815.707-1.324 1.522-1.528 2.445a13.035 13.035 0 00-.306 2.813c0 .408.014.87.041 1.386.027.516.102 1.046.224 1.59.123.543.313 1.066.571 1.569.258.502.604.944 1.04 1.324.624.544 1.283.856 1.976.938.693.081 1.338.122 1.936.122h10.312c.516 0 1.046-.048 1.59-.143a2.527 2.527 0 001.385-.713c.38-.38.619-.842.714-1.386a8.236 8.236 0 00.142-1.386V7.011c0-1.223-.15-2.262-.448-3.118-.299-.856-.68-1.515-1.141-1.977-.49-.516-1.128-.924-1.916-1.223A7.176 7.176 0 0014.74.245H2.472zm13.572 11.82v4.972c0 .164-.013.32-.04.47-.027.148-.122.291-.286.427a.936.936 0 01-.55.224 7.83 7.83 0 01-.51.02H8.016c-.299 0-.59-.067-.876-.203a2.406 2.406 0 01-.673-.449c-.298-.298-.482-.692-.55-1.181a9.18 9.18 0 01-.102-1.223c0-.788.068-1.345.204-1.671.136-.327.244-.544.326-.653.272-.353.59-.563.958-.631.367-.068.632-.102.795-.102h7.947z" fill="#2B7AF1"/><path fill-rule="evenodd" clip-rule="evenodd" d="M5.935 27.306h123.76c3.264 0 5.935 2.67 5.935 5.934v14.825c0 3.264-2.671 5.935-5.935 5.935H5.935C2.67 54 0 51.33 0 48.065V33.24c0-3.264 2.67-5.934 5.935-5.934z" fill="#FF7D03"/><path d="M19.317 47.335l-5.138-5.365a1.871 1.871 0 01-.284-.398c-.099-.175-.148-.322-.148-.444a.89.89 0 01.204-.557c.137-.174.258-.314.364-.42l4.57-4.865h-3.16l-3.842 4.274a11.57 11.57 0 00-.546.705 1.458 1.458 0 00-.057 1.682c.16.242.307.44.444.59l4.387 4.798h3.206zm-8.798 0v-12.05h-2.66v12.05h2.66zm18.028-6.252a2.246 2.246 0 001.432-.705 1.88 1.88 0 00.455-.966c.06-.371.09-.716.09-1.034 0-.288-.03-.645-.09-1.069a2.224 2.224 0 00-.546-1.16 1.924 1.924 0 00-.625-.488 3.696 3.696 0 00-.716-.261 3.406 3.406 0 00-.728-.103 20.884 20.884 0 00-.659-.011h-5.456c-.258 0-.527.026-.807.08a1.79 1.79 0 00-.807.397c-.258.212-.413.447-.466.705a3.52 3.52 0 00-.08.705v8.388c0 .197.023.425.068.683.046.257.175.477.387.659.212.197.466.318.762.364.295.045.572.068.83.068h5.728c.349 0 .75-.034 1.205-.103.455-.068.864-.284 1.228-.647.197-.197.348-.417.455-.66.105-.242.185-.485.238-.727a4.94 4.94 0 00.103-.694 6.873 6.873 0 00-.057-1.591 2.05 2.05 0 00-.444-.989 2.355 2.355 0 00-.59-.489 2.267 2.267 0 00-.91-.307v-.045zm-6.343-1v-2.16c0-.076.008-.152.023-.227a.458.458 0 01.136-.228.399.399 0 01.25-.125c.091-.008.175-.011.25-.011h3.502c.181 0 .363.015.545.045a.98.98 0 01.5.25c.167.152.27.326.307.523.038.197.057.387.057.569 0 .166-.019.337-.057.511a.988.988 0 01-.284.489 1.05 1.05 0 01-.557.307c-.205.038-.39.057-.557.057h-4.115zm0 2.046h4.16c.152 0 .337.019.557.056.22.038.413.148.58.33.152.167.243.353.273.557.03.205.045.398.045.58 0 .197-.019.416-.056.66a1.08 1.08 0 01-.307.613 1.067 1.067 0 01-.591.307 3.88 3.88 0 01-.637.057h-3.32a2.01 2.01 0 01-.306-.023.421.421 0 01-.261-.16.9.9 0 01-.103-.26 1.255 1.255 0 01-.034-.285V42.13zm10.435-6.843v2.046h5.933c.213 0 .436.03.671.09.235.061.444.206.625.433.152.182.246.371.284.568.038.197.057.386.057.568v.842h-5.228c-.319 0-.671.034-1.058.102-.386.068-.769.269-1.148.602-.454.394-.738.849-.852 1.364a7.244 7.244 0 00-.17 1.569c0 .227.007.485.022.773.015.288.057.583.125.887.068.303.174.594.318.875.144.28.338.526.58.739.349.303.716.477 1.103.523a9.29 9.29 0 001.08.068h5.751c.288 0 .584-.027.887-.08.303-.053.56-.186.773-.398a1.41 1.41 0 00.397-.773 4.5 4.5 0 00.08-.773V39.06c0-.681-.083-1.261-.25-1.739-.166-.477-.379-.845-.637-1.102-.272-.288-.628-.516-1.068-.682a4.011 4.011 0 00-1.432-.25h-6.843zm7.57 6.593v2.773c0 .091-.007.178-.023.262a.417.417 0 01-.158.238.524.524 0 01-.308.125 4.531 4.531 0 01-.284.012h-3.705c-.167 0-.33-.038-.489-.114a1.344 1.344 0 01-.375-.25 1.12 1.12 0 01-.307-.66 5.145 5.145 0 01-.057-.681c0-.44.038-.75.114-.932.075-.182.136-.304.182-.364.151-.197.33-.315.534-.352.205-.038.352-.057.443-.057h4.433zm7.139 5.456h3.364c.303 0 .64-.012 1.012-.034a5.14 5.14 0 001.137-.205 4.13 4.13 0 001.114-.523c.356-.235.678-.557.966-.966a4.14 4.14 0 00.511-1 6.95 6.95 0 00.296-1.137c.068-.394.11-.796.125-1.205a27.75 27.75 0 000-2.285 6.974 6.974 0 00-.148-1.17 5.487 5.487 0 00-.386-1.16 3.838 3.838 0 00-.716-1.046 3.57 3.57 0 00-.932-.716 5.095 5.095 0 00-1.899-.568 9.046 9.046 0 00-.716-.034H46.87c-.227 0-.477.023-.75.068a1.738 1.738 0 00-.75.318 2.22 2.22 0 00-.455.534c-.151.235-.227.55-.227.944V51.2h2.66v-3.865zm0-2.046V37.9c0-.151.06-.288.182-.409.045-.03.102-.064.17-.102a.4.4 0 01.194-.057h2.614c.59 0 1.083.129 1.477.386.395.258.675.584.842.978.075.166.148.436.215.807.069.371.103.966.103 1.785 0 .894-.053 1.553-.16 1.977-.105.425-.22.728-.34.91-.152.242-.402.489-.75.739-.349.25-.857.375-1.524.375h-3.023zm16.322 2.046V37.332h4.525v-2.046H56.487v2.046h4.524v10.003h2.66zm17.233 0V36.99c0-.455-.076-.803-.228-1.046a1.695 1.695 0 00-.511-.545 1.353 1.353 0 00-.58-.216 4.187 4.187 0 00-.432-.035c-.272 0-.553.05-.841.148-.288.099-.553.322-.796.67l-5.365 7.89c-.045.075-.09.147-.136.215a.21.21 0 01-.182.103c-.091 0-.144-.027-.16-.08a.935.935 0 01-.022-.239l.114-8.57h-2.66v10.48c0 .167.019.349.057.546.038.197.117.379.238.545.122.167.296.311.523.432.228.121.538.182.933.182.454 0 .803-.08 1.045-.239.243-.159.47-.397.682-.716l5.297-7.752a1.39 1.39 0 01.205-.261c.045-.038.083-.057.113-.057.091 0 .137.03.137.09v.228l-.091 8.57h2.66zm4.478 0h3.365c.303 0 .64-.012 1.012-.034a5.14 5.14 0 001.136-.205 4.13 4.13 0 001.114-.523c.357-.235.678-.557.966-.966a4.14 4.14 0 00.512-1 6.92 6.92 0 00.295-1.137c.069-.394.11-.796.126-1.205.015-.409.022-.81.022-1.205 0-.333-.007-.693-.022-1.08a6.974 6.974 0 00-.148-1.17 5.482 5.482 0 00-.387-1.16 3.84 3.84 0 00-.716-1.046 3.573 3.573 0 00-.932-.716 5.095 5.095 0 00-1.898-.568 9.05 9.05 0 00-.716-.034h-4.206c-.227 0-.477.023-.75.068a1.738 1.738 0 00-.75.318 2.23 2.23 0 00-.455.534c-.152.235-.228.55-.228.944V51.2h2.66v-3.865zm0-2.046V37.9c0-.151.06-.288.182-.409.046-.03.103-.064.17-.102a.4.4 0 01.194-.057h2.614c.591 0 1.084.129 1.478.386.394.258.675.584.841.978.076.166.148.436.216.807.068.371.103.966.103 1.785 0 .894-.054 1.553-.16 1.977-.106.425-.22.728-.34.91-.152.242-.402.489-.751.739-.348.25-.856.375-1.523.375H85.38zm14.877 4.099h8.71c.23 0 .481-.004.752-.012a4.548 4.548 0 001.728-.407c.287-.132.555-.321.801-.568a3.25 3.25 0 00.642-.913 4.56 4.56 0 00.358-1.085c.074-.379.123-.77.148-1.172.024-.403.037-.802.037-1.197 0-.592-.041-1.193-.124-1.801-.082-.609-.337-1.185-.765-1.728-.427-.542-.892-.896-1.394-1.06a4.915 4.915 0 00-1.542-.247h-4.762c-.181 0-.387-.02-.617-.062a.996.996 0 01-.543-.26.96.96 0 01-.234-.542 5.11 5.11 0 01-.037-.592v-2.147c0-.099.004-.214.012-.346a.48.48 0 01.136-.32.523.523 0 01.283-.173 1.48 1.48 0 01.383-.05h8.636v-2.59h-10.413a6.16 6.16 0 00-.333.012 2.5 2.5 0 00-.95.26 1.818 1.818 0 00-.469.345 1.967 1.967 0 00-.37.58c-.115.255-.172.596-.172 1.024v4.367c0 .148.008.333.024.555.017.222.054.457.111.704.058.246.152.489.284.727.132.239.321.44.568.605.164.131.357.23.579.296.223.066.445.111.667.136.222.024.44.041.654.049.214.008.403.012.567.012h4.59c.46 0 .806.074 1.036.222.23.148.387.288.469.42.164.23.267.518.308.864.041.345.062.633.062.863a6.9 6.9 0 01-.086 1.049c-.058.37-.153.654-.284.851-.231.346-.518.555-.864.63-.345.073-.641.11-.888.11h-7.698v2.591zm15.939 0h7.773c.263 0 .576-.012.938-.037a4.244 4.244 0 001.11-.234 3.79 3.79 0 001.11-.63c.362-.287.675-.694.938-1.22a4.98 4.98 0 00.494-1.703c.065-.609.098-1.226.098-1.85v-6.96c0-.427-.045-.908-.136-1.443a3.75 3.75 0 00-.629-1.517 3.153 3.153 0 00-.913-.925 4.017 4.017 0 00-1.085-.494 6.146 6.146 0 00-1.148-.21 12.65 12.65 0 00-1.073-.049h-3.479a9.84 9.84 0 00-1.765.173 3.441 3.441 0 00-1.714.863 3.317 3.317 0 00-.728.987 5.477 5.477 0 00-.395 1.123 6.187 6.187 0 00-.161 1.135c-.016.37-.024.703-.024 1 0 .723.049 1.43.148 2.121.099.691.387 1.316.863 1.876a3.2 3.2 0 00.802.703c.288.172.572.3.852.382.279.083.538.136.777.16.239.025.432.038.58.038h5.971v1.455c0 .28-.029.63-.086 1.05-.058.419-.226.768-.506 1.048s-.601.444-.963.493c-.361.05-.682.074-.962.074h-6.687v2.591zm9.204-9.302h-3.997a9.65 9.65 0 01-.432-.012 3.283 3.283 0 01-.543-.075 4.244 4.244 0 01-.555-.16 1.47 1.47 0 01-.469-.271c-.23-.23-.395-.543-.493-.938a4.755 4.755 0 01-.148-1.16c0-.608.07-1.081.209-1.418.14-.338.3-.588.481-.753.165-.165.383-.304.654-.42.272-.115.63-.172 1.074-.172h1.998c.428 0 .778.062 1.049.185.272.123.481.259.629.407.264.263.42.563.469.9.049.338.074.605.074.803v3.084z" fill="#fff"/><path d="M28.843 13.695h9.373c.571 0 1.203-.06 1.896-.183.693-.123 1.379-.482 2.058-1.08.815-.707 1.325-1.522 1.529-2.446.203-.924.305-1.861.305-2.812 0-.408-.013-.87-.04-1.386a9.5 9.5 0 00-.225-1.59 6.584 6.584 0 00-.57-1.569 4.443 4.443 0 00-1.04-1.324C41.504.76 40.846.449 40.153.367a16.617 16.617 0 00-1.937-.122H27.905a9.2 9.2 0 00-1.59.143 2.526 2.526 0 00-1.386.713c-.38.38-.618.842-.713 1.386a8.227 8.227 0 00-.143 1.386V15.08l.001.077v6.689h4.769v-8.152zm0-3.668V5.054c0-.163.012-.319.04-.468.027-.15.122-.292.285-.428a.936.936 0 01.55-.224c.204-.014.374-.02.51-.02h6.644c.298 0 .59.067.876.203.285.136.51.285.672.448.3.3.483.693.55 1.182.068.49.102.897.102 1.223 0 .788-.067 1.345-.203 1.671-.136.326-.245.544-.327.652-.271.353-.59.564-.957.632-.367.068-.632.102-.795.102h-7.948z" fill="#2B7AF1"/></svg>