<svg width="47" height="51"><path class="shp0" d="M7.7 29.97c-3.49 3.52-5.24 7.76-5.24 12.71v4.01h22.02v1.96H.41v-5.97c0-4.56 1.37-8.63 4.11-12.22 2.74-3.58 6.2-5.93 10.37-7.04-1.96-1.04-3.56-2.51-4.79-4.4-1.24-1.89-1.86-4.01-1.86-6.36 0-3.32 1.19-6.16 3.57-8.5 2.38-2.35 5.2-3.52 8.46-3.52 3.33 0 6.17 1.17 8.52 3.52 2.34 2.34 3.52 5.18 3.52 8.5 0 2.35-.61 4.49-1.81 6.41-1.21 1.92-2.82 3.37-4.85 4.35 3.4.85 6.43 2.61 9.1 5.28h-3.03c-3.33-2.67-7.08-4.01-11.25-4.01-5.03 0-9.28 1.76-12.77 5.28zm12.77-7.33c2.8 0 5.18-.96 7.14-2.89 1.96-1.92 2.94-4.28 2.94-7.09 0-2.8-.98-5.16-2.94-7.08-1.96-1.93-4.34-2.89-7.14-2.89-2.81 0-5.17.96-7.1 2.89-1.92 1.92-2.88 4.28-2.88 7.08 0 2.81.96 5.17 2.88 7.09 1.93 1.93 4.29 2.89 7.1 2.89zm26.12 22.1h-6.06v5.96h-1.96v-5.96H32.5v-2.06h6.07v-5.96h1.96v5.96h6.06v2.06z"/></svg>