<svg width="40" height="40"><path class="shp0" d="M1.65 20c0 5.1 1.77 9.44 5.33 13.01 3.55 3.57 7.87 5.35 12.95 5.35 5.08 0 9.4-1.78 12.96-5.35 3.55-3.57 5.32-7.91 5.32-13.01s-1.77-9.44-5.32-13.01c-3.56-3.56-7.88-5.35-12.96-5.35-5.08 0-9.4 1.79-12.95 5.35C3.42 10.56 1.65 14.9 1.65 20zm38.2 0c0 5.52-1.95 10.23-5.84 14.14C30.12 38.05 25.43 40 19.93 40S9.74 38.05 5.85 34.14C1.96 30.23.01 25.52.01 20c0-5.52 1.95-10.23 5.84-14.14C9.74 1.95 14.43 0 19.93 0s10.19 1.95 14.08 5.86c3.89 3.91 5.84 8.62 5.84 14.14zm-7.63-7.66l-1.32-1.33-10.97 11.18-7.62-7.82-1.33 1.33 8.95 8.83 12.29-12.19zM19.93 3.67c-.36 0-.67.13-.93.39s-.39.58-.39.94.13.68.39.94c.26.26.57.39.93.39.36 0 .67-.13.94-.39.25-.26.38-.58.38-.94s-.13-.68-.38-.94c-.27-.26-.58-.39-.94-.39zm0 30c-.36 0-.67.13-.93.39s-.39.58-.39.94.13.68.39.94c.26.26.57.39.93.39.36 0 .67-.13.94-.39.25-.26.38-.58.38-.94s-.13-.68-.38-.94c-.27-.26-.58-.39-.94-.39zm-14.94-15c-.36 0-.67.13-.93.39s-.39.58-.39.94.13.68.39.94c.26.26.57.39.93.39.37 0 .68-.13.94-.39.26-.26.39-.58.39-.94s-.13-.68-.39-.94c-.26-.26-.57-.39-.94-.39zm29.88 0c-.36 0-.68.13-.93.39-.26.26-.39.58-.39.94s.13.68.39.94c.25.26.57.39.93.39.36 0 .67-.13.93-.39s.39-.58.39-.94-.13-.68-.39-.94a1.27 1.27 0 00-.93-.39z"/></svg>