<svg width="45" height="40"><path class="shp0" d="M28.25 40.02H.75v-40h27.5v40zM2 1.27v3.75h25V1.27H2zm0 5v25h25v-25H2zm25 32.5v-6.25H2v6.25h25zm-15-35h5V2.52h-5v1.25zm4.37 31.87c0 .52-.18.97-.54 1.33-.37.36-.81.55-1.33.55s-.96-.19-1.33-.55c-.36-.36-.54-.81-.54-1.33s.18-.96.54-1.33c.37-.36.81-.54 1.33-.54s.96.18 1.33.54c.36.37.54.81.54 1.33zm-1.87-.62c-.42 0-.62.2-.62.62s.2.63.62.63.62-.21.62-.63c0-.42-.2-.62-.62-.62zm14.03-25h15.94v30H28.53v-30zm15 29.06v-4.69H29.47v4.69h14.06zm0-5.63V14.7H29.47v18.75h14.06zm-14.06-22.5v2.82h14.06v-2.82H29.47zm5.16 1.88h3.74v-.94h-3.74v.94zm3.28 23.9c0 .4-.14.73-.41 1-.28.27-.61.41-1 .41s-.72-.14-1-.41c-.27-.27-.41-.6-.41-1 0-.39.14-.72.41-.99.28-.27.61-.41 1-.41s.72.14 1 .41c.27.27.41.6.41.99zm-1.41-.46c-.31 0-.47.15-.47.46 0 .32.16.47.47.47.31 0 .47-.15.47-.47 0-.31-.16-.46-.47-.46z"/></svg>