<svg width="41" height="40"><path class="shp0" d="M40.05 20c0 5.52-1.95 10.23-5.86 14.14-3.9 3.91-8.62 5.86-14.14 5.86-5.52 0-10.23-1.95-14.14-5.86C2.01 30.23.06 25.52.06 20c0-5.52 1.95-10.23 5.85-14.14C9.82 1.95 14.53 0 20.05 0c5.52 0 10.24 1.95 14.14 5.86 3.91 3.91 5.86 8.62 5.86 14.14zm-1.64 0c0-5.1-1.78-9.44-5.35-13.01-3.57-3.56-7.9-5.35-13.01-5.35-5.1 0-9.44 1.79-13 5.35C3.48 10.56 1.7 14.9 1.7 20s1.78 9.44 5.35 13.01c3.56 3.57 7.9 5.35 13 5.35 5.11 0 9.44-1.78 13.01-5.35 3.57-3.57 5.35-7.91 5.35-13.01zm-20.9-2.5c1.18.73 2.48 1.32 3.91 1.76 1.43.44 2.75 1.16 3.95 2.15 1.19.99 1.82 2.24 1.87 3.75 0 1.45-.52 2.69-1.56 3.71-1.04 1.01-2.48 1.63-4.3 1.83v2.66h-1.8v-2.89c-2.81-.11-4.92-.94-6.32-2.5l1.33-1.49.62.55c.47.42 1.18.82 2.15 1.21.96.39 1.96.59 3.01.59 1.3 0 2.38-.33 3.24-.98.86-.65 1.29-1.5 1.29-2.54 0-1.14-.59-2.11-1.76-2.89-1.17-.78-2.48-1.38-3.91-1.8-1.43-.41-2.73-1.1-3.9-2.07-1.17-.96-1.76-2.14-1.76-3.55 0-1.35.55-2.57 1.64-3.63 1.09-1.07 2.47-1.68 4.14-1.84V6.64h1.88v2.89c2.34.11 4.11.76 5.31 1.95l-1.17 1.72-.63-.47c-.42-.31-1.04-.62-1.87-.93-.84-.32-1.67-.47-2.5-.47-1.36 0-2.46.34-3.32 1.01-.86.68-1.29 1.51-1.29 2.5 0 1.05.58 1.93 1.75 2.66z"/></svg>