<svg width="51" height="46"><path class="shp0" d="M50.49 18.31h-1.96v26.98H2.4V18.31H.45v-7.75h15.93c-.98-1.11-1.47-2.39-1.47-3.83 0-1.63.56-3.01 1.66-4.12C17.68 1.5 19.05.94 20.68.94c2.15 0 3.75.82 4.79 2.46C26.51 1.76 28.11.94 30.26.94c1.63 0 2.99.56 4.1 1.67 1.11 1.11 1.66 2.49 1.66 4.12 0 1.44-.48 2.72-1.46 3.83h15.93v7.75zM27.57 3.98c-.75.79-1.12 1.71-1.12 2.75v3.83h3.81c1.04 0 1.95-.38 2.73-1.13.79-.75 1.18-1.65 1.18-2.7 0-1.11-.38-2.04-1.13-2.8-.75-.75-1.68-1.12-2.78-1.12-1.05 0-1.94.39-2.69 1.17zm-9.63 5.45c.78.75 1.7 1.13 2.74 1.13h3.81V6.73c0-1.04-.37-1.96-1.12-2.75-.75-.78-1.65-1.17-2.69-1.17-1.11 0-2.04.37-2.79 1.12-.75.76-1.12 1.69-1.12 2.8 0 1.05.39 1.95 1.17 2.7zM2.4 16.35h22.09v-3.83H2.4v3.83zm1.86 27.07h20.23V18.31H4.26v25.11zm42.42-25.11H26.45v25.11h20.23V18.31zm1.85-5.79H26.45v3.83h22.08v-3.83z"/></svg>