<svg xmlns="http://www.w3.org/2000/svg" width="36" height="36"><style/><g id="Team"><g id="Team Members"><g id="Member Details"><g id="social connect"><path id="" d="M35.97 5.97c0 1.51-.52 2.79-1.56 3.83-1.05 1.04-2.3 1.56-3.75 1.56-2.04 0-3.57-.89-4.61-2.66L10.5 15.27c.1.52.16.98.16 1.4 0 .89-.21 1.75-.63 2.58l10 7.19c1.09-1.2 2.42-1.8 3.99-1.8 1.45 0 2.7.53 3.75 1.6 1.04 1.07 1.56 2.33 1.56 3.79s-.52 2.71-1.56 3.75c-1.05 1.04-2.3 1.56-3.75 1.56-1.46 0-2.71-.52-3.75-1.56-1.05-1.04-1.57-2.29-1.57-3.75 0-.99.19-1.82.55-2.5l-10-7.27c-1.04 1.15-2.34 1.72-3.91 1.72-1.45 0-2.71-.5-3.75-1.52S.03 18.18.03 16.67c0-1.51.52-2.77 1.56-3.79 1.04-1.01 2.3-1.52 3.75-1.52 2.09 0 3.62.89 4.61 2.66l15.63-6.57c-.16-.47-.24-.96-.24-1.48 0-1.46.52-2.71 1.57-3.75C27.95 1.18 29.2.66 30.66.66c1.45 0 2.7.52 3.75 1.56 1.04 1.04 1.56 2.29 1.56 3.75zM20.03 30.03c0 1.09.39 2.03 1.17 2.81.78.78 1.72 1.18 2.82 1.18 1.09 0 2.03-.4 2.81-1.18.78-.78 1.17-1.72 1.17-2.81 0-1.14-.39-2.11-1.17-2.89-.78-.78-1.72-1.17-2.81-1.17-1.1 0-2.04.39-2.82 1.17-.78.78-1.17 1.75-1.17 2.89zM9.33 16.67c0-1.09-.39-2.03-1.17-2.81-.78-.78-1.72-1.17-2.82-1.17-1.09 0-2.03.39-2.81 1.17-.78.78-1.17 1.72-1.17 2.81 0 1.1.39 2.03 1.17 2.81.78.78 1.72 1.18 2.81 1.18 1.1 0 2.04-.4 2.82-1.18.78-.78 1.17-1.71 1.17-2.81zm25.31-10.7c0-1.1-.39-2.03-1.17-2.81-.78-.79-1.72-1.18-2.81-1.18-1.1 0-2.04.39-2.82 1.18-.78.78-1.17 1.71-1.17 2.81 0 1.14.39 2.11 1.17 2.89.78.78 1.72 1.17 2.82 1.17 1.09 0 2.03-.39 2.81-1.17.78-.78 1.17-1.75 1.17-2.89z" fill="#fc5f45"/></g></g></g></g></svg>