<svg width="41" height="40"><path class="shp0" d="M40.21 19.98c0 5.5-1.95 10.2-5.83 14.11-3.89 3.91-8.57 5.86-14.04 5.86-5.48 0-10.16-1.95-14.04-5.86C2.41 30.18.47 25.48.47 19.98c0-5.51 1.94-10.21 5.83-14.12C10.18 1.95 14.86 0 20.34 0c5.47 0 10.15 1.95 14.04 5.86 3.88 3.91 5.83 8.61 5.83 14.12zm-1.59 0c0-5.07-1.79-9.4-5.36-12.99-3.58-3.6-7.89-5.4-12.92-5.4-5.04 0-9.35 1.8-12.92 5.4-3.58 3.59-5.37 7.92-5.37 12.99 0 5.06 1.79 9.39 5.37 12.98 3.57 3.6 7.88 5.4 12.92 5.4 5.03 0 9.34-1.8 12.92-5.4 3.57-3.59 5.36-7.92 5.36-12.98zM32 12.85c.56.56.52 1.12-.1 1.69L18.28 27.85c-.18.19-.43.28-.74.28-.37 0-.65-.09-.84-.28l-5.32-5.34c-.56-.57-.56-1.13 0-1.69s1.12-.56 1.68 0l4.48 4.5 12.78-12.47c.56-.57 1.12-.57 1.68 0z"/></svg>