<svg width="55" height="43"><path class="shp0" d="M46.41 43H0V6.89h46.41V43zM1.72 8.61V31.5l11.17-11.28 12.25 13.97 8.48-5.16 11.07 9.56V8.61H1.72zm42.97 32.67v-.43l-11.28-9.67-8.7 5.16L12.89 22.8 1.72 33.86v7.42h42.97zM7.73.02H55v36.1h-7.73V34.4h6.01V1.74H9.45v4.29H7.73V.02zm21.49 18.91c0-1.43.5-2.65 1.5-3.65 1-1.01 2.22-1.51 3.65-1.51 1.44 0 2.65.5 3.66 1.51 1 1 1.5 2.22 1.5 3.65 0 1.43-.5 2.65-1.5 3.65-1.01 1.01-2.22 1.51-3.66 1.51-1.43 0-2.65-.5-3.65-1.51-1-1-1.5-2.22-1.5-3.65zm1.72 0c0 1 .32 1.82.96 2.47.65.64 1.47.97 2.47.97 1.01 0 1.83-.33 2.48-.97.64-.65.96-1.47.96-2.47 0-1-.32-1.83-.96-2.47-.65-.65-1.47-.97-2.48-.97-1 0-1.82.32-2.47.97-.64.64-.96 1.47-.96 2.47z"/></svg>