<svg width="80" height="80"><path class="shp0" d="M34.69 25.31L52.5 39.06v1.88L34.69 54.69l-2.19-.94v-27.5l2.19-.94zM35 51.25L49.22 40 35 28.75v22.5zM80 40c0 11.04-3.91 20.47-11.72 28.28C60.47 76.09 51.04 80 40 80c-11.04 0-20.47-3.91-28.28-11.72C3.91 60.47 0 51.04 0 40c0-11.04 3.91-20.47 11.72-28.28C19.53 3.91 28.96 0 40 0c11.04 0 20.47 3.91 28.28 11.72C76.09 19.53 80 28.96 80 40zm-2.5 0c0-10.21-3.65-19.06-10.94-26.56C59.06 6.15 50.21 2.5 40 2.5c-10.21 0-19.06 3.65-26.56 10.94C6.14 20.94 2.5 29.79 2.5 40c0 10.21 3.64 19.06 10.94 26.56C20.94 73.85 29.79 77.5 40 77.5c10.21 0 19.06-3.65 26.56-10.94C73.85 59.06 77.5 50.21 77.5 40z"/></svg>