<svg xmlns="http://www.w3.org/2000/svg" width="51" height="44"><style/><g id="Stats"><g id="stats"><g id="Stat 3"><path id="" d="M50.55 13.69c0 3.7-1.31 6.86-3.91 9.48L25.5 43.22 4.37 23.37C1.76 20.68.45 17.47.45 13.73.45 10 1.76 6.82 4.37 4.2 6.91 1.64 10.17.37 14.15.37c3.72 0 6.85 1.27 9.39 3.83 1.05 1.31 1.77 2.29 2.16 2.95.52-1.05 1.24-2.03 2.15-2.95C30.39 1.64 33.52.37 37.24.37c3.72 0 6.85 1.27 9.4 3.83 2.6 2.62 3.91 5.78 3.91 9.49zm-2.15-.25c0-3.15-1.11-5.83-3.33-8.06-2.09-2.23-4.76-3.34-8.02-3.34-3.2 0-5.91 1.11-8.12 3.34-.53.66-1.08 1.41-1.67 2.26l-1.76 2.95-1.76-2.95c-.39-.65-.95-1.41-1.66-2.26-2.22-2.23-4.93-3.34-8.12-3.34-3.2 0-5.94 1.18-8.22 3.54-2.22 2.22-3.33 4.91-3.33 8.06 0 3.21 1.11 5.93 3.33 8.15L25.5 40.77l19.77-18.98c2.08-2.09 3.13-4.88 3.13-8.35z" fill="#b27cf5"/></g></g></g></svg>