<svg width="15" height="16"><path fill="green" class="shp0" d="M15 7.77c0 2.08-.73 3.85-2.19 5.31-1.46 1.46-3.23 2.19-5.31 2.19-2.08 0-3.85-.73-5.31-2.19C.73 11.62.01 9.85.01 7.77c0-2.09.72-3.86 2.18-5.32C3.65 1 5.42.27 7.5.27c2.08 0 3.85.73 5.31 2.18C14.27 3.91 15 5.68 15 7.77zm-1.25 0c0-1.72-.61-3.19-1.84-4.42-1.22-1.22-2.69-1.83-4.41-1.83-1.72 0-3.19.61-4.41 1.83-1.22 1.23-1.83 2.7-1.83 4.42 0 1.71.61 3.19 1.83 4.41 1.22 1.23 2.69 1.84 4.41 1.84 1.72 0 3.19-.61 4.41-1.84 1.23-1.22 1.84-2.7 1.84-4.41zM7.5 4.02c1.04 0 1.93.36 2.66 1.09.72.73 1.09 1.62 1.09 2.66s-.37 1.92-1.09 2.65c-.73.73-1.62 1.1-2.66 1.1s-1.92-.37-2.65-1.1c-.73-.73-1.1-1.61-1.1-2.65 0-1.04.37-1.93 1.1-2.66.73-.73 1.61-1.09 2.65-1.09z"/></svg>